<svg xmlns="http://www.w3.org/2000/svg" version="1.1" xmlns:xlink="http://www.w3.org/1999/xlink" xmlns:svgjs="http://svgjs.dev/svgjs" width="512" height="512"><svg xmlns="http://www.w3.org/2000/svg" version="1.1" viewBox="0 0 512 512">
  <defs>
    <style>
      .cls-1 {
        fill: #fea300;
      }

      .cls-2 {
        fill: #b90c2f;
      }

      .cls-3 {
        fill: #003865;
      }

      .cls-4 {
        fill: #fefefe;
      }

      .cls-5 {
        fill: #fdfdfd;
      }
    </style>
  </defs>
  <!-- Generator: Adobe Illustrator 28.7.2, SVG Export Plug-In . SVG Version: 1.2.0 Build 154)  -->
  <g>
    <g id="SvgjsG1001">
      <g>
        <path class="cls-5" d="M256,383.98c-84.93,0-169.85,0-254.78.02-1,0-1.23-.22-1.22-1.22.03-84.52.03-169.03,0-253.55,0-1,.22-1.22,1.22-1.22,169.85.03,339.7.03,509.55,0,1,0,1.23.22,1.22,1.22-.03,84.52-.03,169.03,0,253.55,0,1-.22,1.23-1.22,1.22-84.93-.03-169.85-.02-254.78-.02Z"></path>
        <path class="cls-3" d="M18.97,149.91c55.76,32.19,111.29,64.24,166.93,96.36-.53.41-1.07.24-1.55.24-20.62.01-41.24,0-61.86,0-33.95,0-67.9-.01-101.85.04-1.43,0-1.7-.41-1.7-1.75.04-31.06.03-62.12.03-93.18v-1.71Z"></path>
        <path class="cls-3" d="M185.82,265.78c-55.55,32.06-111.09,64.13-166.67,96.21-.3-.52-.17-.97-.17-1.39,0-31.19,0-62.38-.04-93.58,0-1.33.38-1.56,1.62-1.56,54.61.03,109.23.03,163.84.03.44,0,.88,0,1.32,0,.03.1.06.2.1.29Z"></path>
        <path class="cls-3" d="M198,280.63v1.48c0,29.95,0,59.89.03,89.84,0,1.09-.23,1.39-1.36,1.39-52.57-.03-105.13-.03-157.7-.03h-1.04c-.03-.07-.05-.14-.08-.21,53.3-30.77,106.6-61.55,160.15-92.46Z"></path>
        <path class="cls-3" d="M37.92,138.69h1.27c52.43,0,104.86,0,157.3-.02,1.15,0,1.55.2,1.54,1.48-.04,29.9-.03,59.8-.04,89.7,0,.42.13.88-.21,1.4-53.32-30.78-106.62-61.56-159.93-92.33.02-.07.04-.15.06-.22Z"></path>
        <path class="cls-2" d="M494.73,138.91c-3.54,1.2-7.09,2.4-10.63,3.6-39.54,13.39-79.07,26.78-118.61,40.17-47.43,16.07-94.85,32.14-142.28,48.2q-1.53.52-1.53-1.04c0-29.9,0-59.81-.02-89.71,0-1.11.18-1.49,1.42-1.49,90.16.04,180.32.03,270.48.03h1.13c.01.08.03.15.04.23Z"></path>
        <path class="cls-2" d="M494.68,373.31c-.44,0-.89,0-1.33,0-89.98,0-179.97,0-269.95.03-1.33,0-1.76-.25-1.76-1.69.05-29.81.04-59.63.04-89.44q0-1.61,1.47-1.11c36.47,12.35,72.95,24.7,109.42,37.05,53.72,18.2,107.44,36.4,161.17,54.61.32.11.64.22.97.33,0,.07-.02.15-.02.22Z"></path>
        <path class="cls-2" d="M469.24,256.02c-7.09,2.19-13.82,4.27-20.54,6.34-4.57,1.41-9.15,2.82-13.72,4.23-.72.22-1.45.35-2.22.35-69.81-.01-139.62,0-209.43,0h-1.15c-.02-.07-.04-.14-.07-.21,6.11-3.53,12.23-7.07,18.56-10.73-6.28-3.63-12.4-7.17-18.57-10.74.3-.34.67-.2.98-.2,69.94,0,139.89,0,209.83-.02.87,0,1.65.25,2.46.5,10.84,3.34,21.69,6.66,32.54,10,.33.1.65.23,1.33.48Z"></path>
        <path class="cls-4" d="M430.05,149.56c-6.32,2.14-12.65,4.29-18.97,6.43-55.11,18.66-110.22,37.33-165.33,55.99-4.07,1.38-8.15,2.72-12.21,4.14-.95.33-1.21.19-1.21-.85.02-21.59.03-43.19-.02-64.78,0-1.31.66-1.15,1.47-1.15,29.06,0,58.12,0,87.18,0h107.44c.53,0,1.06,0,1.6,0,.01.07.03.14.04.21Z"></path>
        <path class="cls-4" d="M430.01,362.65h-1.46c-64.83,0-129.66,0-194.49.03-1.35,0-1.75-.28-1.74-1.7.05-21.19.03-42.39.04-63.58,0-2.14-.18-1.98,1.81-1.3,35.97,12.17,71.94,24.37,107.91,36.55,29.04,9.84,58.09,19.67,87.14,29.5.28.1.56.21.84.31-.01.06-.02.13-.04.19Z"></path>
        <path class="cls-1" d="M239.94,261.91c2.91-1.68,5.81-3.36,8.71-5.06.41-.24,1.08-.38,1.1-.84.02-.5-.67-.62-1.07-.85-2.91-1.7-5.82-3.38-9.04-5.24.72-.04,1.13-.08,1.54-.08,63.58,0,127.16,0,190.74-.02,1.71,0,3.2.64,4.76,1.11,5.34,1.61,10.67,3.26,16.16,4.95-.57.57-1.2.61-1.75.79-5.59,1.74-11.19,3.45-16.78,5.18-.68.21-1.37.33-2.09.33-63.8,0-127.6,0-191.41,0h-.8c-.03-.08-.06-.17-.09-.25Z"></path>
      </g>
    </g>
  </g>
</svg><style>@media (prefers-color-scheme: light) { :root { filter: none; } }
@media (prefers-color-scheme: dark) { :root { filter: none; } }
</style></svg>